<svg width="32" height="32" viewBox="0 0 32 32" fill="none" xmlns="http://www.w3.org/2000/svg">
<path d="M27.6133 4.38669C27.2294 4.00591 26.7702 3.70958 26.265 3.51671C25.7599 3.32383 25.22 3.23867 24.68 3.26669C23.5812 3.32763 22.5468 3.80432 21.7867 4.60002L12.6133 13.72C12.5523 13.787 12.5028 13.8636 12.4667 13.9467C12.4141 14.0219 12.3694 14.1023 12.3333 14.1867L10.6667 19.6267C10.6072 19.8298 10.597 20.0441 10.6368 20.252C10.6766 20.4598 10.7654 20.6552 10.8956 20.822C11.0259 20.9887 11.194 21.1221 11.3861 21.211C11.5781 21.2999 11.7885 21.3419 12 21.3334C12.1237 21.3528 12.2496 21.3528 12.3733 21.3334L17.7067 19.7734L17.9467 19.64C18.0297 19.6039 18.1063 19.5543 18.1733 19.4934L27.3333 10.32C28.129 9.55986 28.6057 8.52544 28.6667 7.42669C28.7187 6.87411 28.6516 6.3168 28.4699 5.79236C28.2882 5.26793 27.9961 4.78858 27.6133 4.38669Z" fill="white"/>
<path d="M5.33332 4.83335H4.83332V5.33335V26.6667V27.1667H5.33332H26.6667H27.1667V26.6667V16C27.1667 15.779 27.2545 15.567 27.4107 15.4108C27.567 15.2545 27.779 15.1667 28 15.1667C28.221 15.1667 28.433 15.2545 28.5892 15.4108C28.7455 15.567 28.8333 15.779 28.8333 16V26.6667C28.8333 27.2413 28.605 27.7924 28.1987 28.1987C27.7924 28.6051 27.2413 28.8334 26.6667 28.8334H5.33332C4.75869 28.8334 4.20759 28.6051 3.80126 28.1987C3.39493 27.7924 3.16666 27.2413 3.16666 26.6667V5.33335C3.16666 4.75872 3.39493 4.20762 3.80126 3.80129C4.20759 3.39496 4.75869 3.16669 5.33332 3.16669H16C16.221 3.16669 16.433 3.25448 16.5892 3.41076C16.7455 3.56705 16.8333 3.77901 16.8333 4.00002C16.8333 4.22103 16.7455 4.433 16.5892 4.58928C16.433 4.74556 16.221 4.83335 16 4.83335H5.33332Z" fill="white" stroke="white"/>
</svg>
