<svg width="28" height="28" viewBox="0 0 28 28" fill="none" xmlns="http://www.w3.org/2000/svg">
<path d="M14 11.375C12.5527 11.375 11.375 12.5527 11.375 14C11.375 15.4472 12.5527 16.625 14 16.625C15.4472 16.625 16.625 15.4472 16.625 14C16.625 12.5527 15.4472 11.375 14 11.375Z" fill="#00AAFF"/>
<path d="M5.25 11.375C3.80275 11.375 2.625 12.5527 2.625 14C2.625 15.4472 3.80275 16.625 5.25 16.625C6.69725 16.625 7.875 15.4472 7.875 14C7.875 12.5527 6.69725 11.375 5.25 11.375Z" fill="#00AAFF"/>
<path d="M22.75 11.375C21.3027 11.375 20.125 12.5527 20.125 14C20.125 15.4472 21.3027 16.625 22.75 16.625C24.1972 16.625 25.375 15.4472 25.375 14C25.375 12.5527 24.1972 11.375 22.75 11.375Z" fill="#00AAFF"/>
</svg>
