<svg width="40" height="40" viewBox="0 0 40 40" fill="none" xmlns="http://www.w3.org/2000/svg">
<path fill-rule="evenodd" clip-rule="evenodd" d="M23.798 3.58711C23.1808 3.33337 22.3983 3.33337 20.8333 3.33337C19.2683 3.33337 18.4858 3.33337 17.8687 3.58711C17.0457 3.92542 16.3918 4.57434 16.0509 5.39109C15.8953 5.76394 15.8344 6.19754 15.8106 6.83002C15.7756 7.75951 15.2953 8.61986 14.4836 9.08492C13.672 9.54997 12.6811 9.53261 11.8525 9.09797C11.2886 8.80221 10.8798 8.63774 10.4766 8.58507C9.59348 8.46967 8.7003 8.70719 7.9936 9.24537C7.46356 9.64901 7.07231 10.3215 6.28983 11.6666C5.50735 13.0117 5.11611 13.6842 5.02891 14.3416C4.91263 15.218 5.15196 16.1045 5.69425 16.8059C5.94176 17.126 6.28961 17.395 6.8295 17.7317C7.62318 18.2267 8.13386 19.0699 8.13381 20C8.13376 20.9302 7.6231 21.7732 6.8295 22.268C6.28953 22.6049 5.94161 22.874 5.69408 23.1942C5.1518 23.8955 4.91248 24.7819 5.02875 25.6584C5.11595 26.3157 5.5072 26.9884 6.28966 28.3334C7.07215 29.6784 7.4634 30.351 7.99343 30.7545C8.70013 31.2927 9.59331 31.5302 10.4765 31.4149C10.8796 31.3622 11.2884 31.1977 11.8522 30.902C12.6809 30.4674 13.6718 30.45 14.4835 30.915C15.2952 31.3802 15.7755 32.2405 15.8106 33.1702C15.8344 33.8025 15.8953 34.2362 16.0509 34.609C16.3918 35.4257 17.0457 36.0747 17.8687 36.413C18.4858 36.6667 19.2683 36.6667 20.8333 36.6667C22.3983 36.6667 23.1808 36.6667 23.798 36.413C24.621 36.0747 25.2748 35.4257 25.6157 34.609C25.7713 34.2362 25.8323 33.8025 25.8562 33.17C25.8912 32.2405 26.3713 31.3802 27.183 30.915C27.9947 30.4499 28.9857 30.4674 29.8143 30.902C30.3782 31.1977 30.7868 31.362 31.19 31.4147C32.0732 31.5302 32.9663 31.2927 33.673 30.7545C34.2032 30.3509 34.5943 29.6784 35.3768 28.3332C36.1593 26.9882 36.5505 26.3157 36.6378 25.6584C36.754 24.7819 36.5147 23.8954 35.9725 23.194C35.7248 22.8739 35.377 22.6047 34.837 22.268C34.0435 21.7732 33.5328 20.93 33.5328 19.9999C33.5328 19.0697 34.0435 18.2269 34.837 17.732C35.3772 17.3952 35.725 17.1262 35.9727 16.8059C36.5148 16.1046 36.7542 15.2182 36.638 14.3417C36.5507 13.6843 36.1595 13.0118 35.377 11.6667C34.5945 10.3217 34.2033 9.64912 33.6732 9.24549C32.9665 8.70731 32.0733 8.46979 31.1902 8.58519C30.787 8.63786 30.3782 8.80231 29.8145 9.09804C28.9858 9.53269 27.9948 9.55007 27.1832 9.08497C26.3715 8.61989 25.8912 7.75947 25.856 6.82994C25.8322 6.19751 25.7713 5.76392 25.6157 5.39109C25.2748 4.57434 24.621 3.92542 23.798 3.58711ZM20.8333 25C23.6158 25 25.8713 22.7615 25.8713 20C25.8713 17.2385 23.6158 15 20.8333 15C18.0508 15 15.7953 17.2385 15.7953 20C15.7953 22.7615 18.0508 25 20.8333 25Z" fill="white"/>
</svg>
