<svg width="32" height="34" viewBox="0 0 32 34" fill="none" xmlns="http://www.w3.org/2000/svg">
<path d="M14.61 14.7611C17.6863 14.7611 20.18 12.2382 20.18 9.12611C20.18 6.01397 17.6863 3.49109 14.61 3.49109C11.5338 3.49109 9.04004 6.01397 9.04004 9.12611C9.04004 12.2382 11.5338 14.7611 14.61 14.7611Z" stroke="white" stroke-width="2"/>
<path d="M20.66 18.9444C19.315 17.958 16.49 17.3004 14.61 17.3004C13.1289 17.3004 11.6623 17.5956 10.2941 18.1692C8.92578 18.7427 7.68261 19.5834 6.63557 20.6431C5.58852 21.7029 4.75811 22.9609 4.19179 24.3454C3.62546 25.7299 3.33431 27.2137 3.33496 28.7121H18.285" stroke="white" stroke-width="2"/>
<path d="M22.69 30.6647C25.9871 30.6647 28.66 27.9606 28.66 24.625C28.66 21.2894 25.9871 18.5853 22.69 18.5853C19.3928 18.5853 16.72 21.2894 16.72 24.625C16.72 27.9606 19.3928 30.6647 22.69 30.6647Z" stroke="white" stroke-width="2"/>
<path d="M19.49 24.5642H26.49" stroke="white" stroke-width="2"/>
</svg>
