<svg width="40" height="40" viewBox="0 0 40 40" fill="none" xmlns="http://www.w3.org/2000/svg">
<g clip-path="url(#clip0_11_118)">
<path fill-rule="evenodd" clip-rule="evenodd" d="M8.33333 15.8334C8.33333 11.6912 11.6912 8.33337 15.8333 8.33337C19.9755 8.33337 23.3333 11.6912 23.3333 15.8334C23.3333 19.9755 19.9755 23.3334 15.8333 23.3334C11.6912 23.3334 8.33333 19.9755 8.33333 15.8334Z" fill="white"/>
<path d="M23.9458 20.1053C23.87 20.249 23.9022 20.4282 24.0327 20.5248C25.002 21.2423 26.2015 21.6667 27.5 21.6667C30.7217 21.6667 33.3333 19.055 33.3333 15.8333C33.3333 12.6117 30.7217 10 27.5 10C26.2015 10 25.002 10.4243 24.0327 11.1419C23.9022 11.2386 23.87 11.4176 23.9458 11.5613C24.619 12.837 25 14.2907 25 15.8333C25 17.376 24.619 18.8297 23.9458 20.1053Z" fill="white"/>
<path fill-rule="evenodd" clip-rule="evenodd" d="M7.73526 26.1655C9.78919 25.274 12.4841 25 15.8333 25C19.1853 25 21.8822 25.2745 23.9368 26.168C26.175 27.1412 27.5353 28.7988 28.2483 31.1393C28.5825 32.2363 27.7585 33.3333 26.623 33.3333H5.04669C3.90982 33.3333 3.08409 32.2347 3.41929 31.1357C4.13324 28.7948 5.49564 27.1377 7.73526 26.1655Z" fill="white"/>
<path d="M24.6975 23.3941C24.0075 23.4369 23.967 24.3639 24.601 24.6396C26.3383 25.3951 27.6465 26.5072 28.5847 27.9267C29.3545 29.0916 30.55 30.0001 31.9462 30.0001H34.9138C36.0925 30.0001 36.9525 28.8289 36.5378 27.6847C36.514 27.6189 36.4892 27.5536 36.4635 27.4887C35.8928 26.0477 34.9147 24.9869 33.4663 24.3107C32.1065 23.6759 30.4042 23.4139 28.3987 23.3347L28.3657 23.3334H28.3328C27.1515 23.3334 25.9177 23.3182 24.6975 23.3941Z" fill="white"/>
</g>
<defs>
<clipPath id="clip0_11_118">
<rect width="40" height="40" fill="white"/>
</clipPath>
</defs>
</svg>
